# xmcd
#
# Track frame offsets: 
#        150
#        18727
#        43865
#        67632
#        88070
#        110257
#        140242
#        178377
#        200042
#        227625
#        250767
#        271970
#        296605
#
# Disc length: 4135 seconds
#
# Revision: 7
# Processed by: cddbd v1.5.2PL0 Copyright (c) Steve Scherf et al.
# Submitted via: ExactAudioCopy v0.95b4
#
DISCID=c410250d
DTITLE=J Spencer - Blue Moon
DYEAR=1995
DGENRE=Jazz
TTITLE0=Blue Moon
TTITLE1=I Want U
TTITLE2=Bells
TTITLE3=U Should Be Mine
TTITLE4=Luv Me Tonite
TTITLE5=Cherish The Day
TTITLE6=The Man With the Horn
TTITLE7=If IT Feels Good
TTITLE8=Hurry Up This Way Again
TTITLE9=African Vibe
TTITLE10=Reggae Vibe
TTITLE11=Close To You
TTITLE12=Lord I Need You
EXTD=YEAR: 1995
EXTT0=
EXTT1=
EXTT2=
EXTT3=
EXTT4=
EXTT5=
EXTT6=
EXTT7=
EXTT8=
EXTT9=
EXTT10=
EXTT11=
EXTT12=
PLAYORDER=
